<?xml version="1.0" encoding="UTF-8"?>
<!DOCTYPE svg PUBLIC "-//W3C//DTD SVG 1.1//EN" "http://www.w3.org/Graphics/SVG/1.1/DTD/svg11.dtd">
<svg xmlns="http://www.w3.org/2000/svg" version="1.1" width="400px" height="353px" style="shape-rendering:geometricPrecision; text-rendering:geometricPrecision; image-rendering:optimizeQuality; fill-rule:evenodd; clip-rule:evenodd" xmlns:xlink="http://www.w3.org/1999/xlink">
<g><path style="opacity:0.892" fill="#fefefe" d="M 144.5,1.5 C 156.317,0.15774 166.817,3.15774 176,10.5C 192.289,-1.4934 208.622,-1.4934 225,10.5C 236.53,1.24575 249.364,-0.920922 263.5,4C 269.753,7.25757 275.086,11.5909 279.5,17C 304.054,18.8867 317.054,31.8867 318.5,56C 329.447,64.3915 335.281,75.5581 336,89.5C 340.202,93.3666 344.035,97.5332 347.5,102C 363.42,102.783 378.753,106.117 393.5,112C 400.34,117.008 400.007,121.675 392.5,126C 378.379,131.576 363.712,134.576 348.5,135C 346.23,139.537 343.23,143.537 339.5,147C 372.066,156.294 386.566,177.794 383,211.5C 380.051,224.574 373.218,235.074 362.5,243C 372.535,267.528 367.869,288.861 348.5,307C 334.093,317.748 318.093,321.082 300.5,317C 294.859,315.429 289.693,312.929 285,309.5C 275.154,341.349 253.654,354.849 220.5,350C 213.165,348.165 206.499,344.999 200.5,340.5C 171.822,358.207 146.322,354.54 124,329.5C 120.724,323.137 117.557,316.803 114.5,310.5C 87.9725,324.361 64.4725,320.361 44,298.5C 31.5923,281.385 29.4256,263.052 37.5,243.5C 16.9581,225.297 11.4581,203.297 21,177.5C 29.4044,161.209 42.571,151.043 60.5,147C 57.2488,143.581 54.5821,139.747 52.5,135.5C 39.9779,134.402 27.6446,132.235 15.5,129C 11.2211,127.527 7.22112,125.527 3.5,123C 0.498677,118.997 1.16534,115.664 5.5,113C 20.7447,106.189 36.7447,102.523 53.5,102C 57.338,95.6628 62.338,90.4961 68.5,86.5C 61.587,67.7513 65.9203,52.2513 81.5,40C 91.9183,33.9291 102.918,32.4291 114.5,35.5C 117.07,17.5971 127.07,6.26373 144.5,1.5 Z M 144.5,10.5 C 151.031,9.98846 157.364,10.8218 163.5,13C 167.707,15.8904 171.873,18.7237 176,21.5C 180.127,18.7237 184.293,15.8904 188.5,13C 195.389,10.2057 202.389,9.87235 209.5,12C 214.877,14.6817 219.877,17.8483 224.5,21.5C 229.342,18.172 234.342,15.0053 239.5,12C 254.791,7.86985 266.457,12.5365 274.5,26C 298.686,26.1864 310.853,38.3531 311,62.5C 317.058,65.5579 321.391,70.2246 324,76.5C 325.892,82.5162 326.892,88.5162 327,94.5C 344.483,107.253 346.983,122.419 334.5,140C 327.479,145.896 319.479,148.563 310.5,148C 293.966,157.87 279.8,155.036 268,139.5C 266.073,136.052 264.739,132.385 264,128.5C 263.5,127.333 262.667,126.5 261.5,126C 253.969,128.95 246.136,131.117 238,132.5C 231.705,131.718 225.538,130.218 219.5,128C 213.382,124.606 207.049,121.773 200.5,119.5C 185.959,128.847 169.959,132.68 152.5,131C 148.279,129.378 143.946,128.712 139.5,129C 130.986,141.866 119.153,149.366 104,151.5C 98.8644,150.79 93.8644,149.457 89,147.5C 75.4637,148.561 65.797,142.895 60,130.5C 55.366,112.102 61.6993,99.1022 79,91.5C 79.5055,87.486 78.5055,83.8194 76,80.5C 72.069,59.1122 80.7357,46.4455 102,42.5C 107.744,43.2471 113.244,44.9138 118.5,47.5C 119.938,47.2811 121.271,46.7811 122.5,46C 121.376,28.7184 128.71,16.8851 144.5,10.5 Z M 44.5,111.5 C 46.1667,111.5 47.8333,111.5 49.5,111.5C 48.7936,116.227 48.7936,120.893 49.5,125.5C 37.5294,124.957 25.8627,122.79 14.5,119C 24.3391,115.404 34.3391,112.904 44.5,111.5 Z M 350.5,111.5 C 362.64,112.076 374.307,114.576 385.5,119C 374.485,122.78 363.152,124.947 351.5,125.5C 351.717,120.77 351.383,116.103 350.5,111.5 Z M 200.5,129.5 C 209.41,134.082 218.744,137.582 228.5,140C 238.37,141.14 248.036,140.306 257.5,137.5C 263.42,152.984 274.753,161.484 291.5,163C 279.433,200.721 257.1,230.721 224.5,253C 209.87,262.144 194.87,262.811 179.5,255C 155.233,240.733 136.399,221.233 123,196.5C 116.292,184.87 111.458,172.537 108.5,159.5C 115.329,158.835 121.663,156.668 127.5,153C 133.633,148.699 139.3,143.866 144.5,138.5C 159.381,141.618 174.048,140.784 188.5,136C 193.01,134.582 197.01,132.415 200.5,129.5 Z M 65.5,155.5 C 77.2879,156.087 88.9546,157.587 100.5,160C 100.428,165.913 101.595,171.746 104,177.5C 117.331,211.823 139.165,239.323 169.5,260C 189.85,272.566 210.183,272.566 230.5,260C 265.983,235.891 289.316,203.057 300.5,161.5C 305.044,160.812 309.211,159.146 313,156.5C 313.725,157.059 314.558,157.392 315.5,157.5C 342.69,151.677 361.856,161.344 373,186.5C 378.442,208.345 371.942,225.678 353.5,238.5C 353.013,239.446 352.68,240.446 352.5,241.5C 364.277,266.894 358.944,287.727 336.5,304C 319.31,312.406 302.977,311.072 287.5,300C 283.705,299.021 280.372,299.854 277.5,302.5C 272.425,327.412 257.259,340.746 232,342.5C 225.519,342.271 219.352,340.771 213.5,338C 209.068,335.035 204.568,332.202 200,329.5C 181.569,345.024 162.069,346.524 141.5,334C 132.188,326.206 126.355,316.373 124,304.5C 121.774,300.139 118.274,298.639 113.5,300C 95.7502,312.271 77.7502,312.604 59.5,301C 40.5236,283.786 36.8569,263.786 48.5,241C 43.7331,236.233 38.8997,231.4 34,226.5C 20.354,203.684 23.1873,183.184 42.5,165C 49.5619,160.128 57.2286,156.962 65.5,155.5 Z M 159.5,162.5 C 170.798,164.753 174.631,171.42 171,182.5C 164.895,189.459 158.229,190.126 151,184.5C 145.175,173.817 148.009,166.484 159.5,162.5 Z M 239.5,162.5 C 247.575,163.408 252.242,167.908 253.5,176C 250.55,186.809 243.883,190.142 233.5,186C 228.315,181.053 227.149,175.219 230,168.5C 232.551,165.319 235.718,163.319 239.5,162.5 Z"/></g>
<g><path style="opacity:0.903" fill="#fefffe" d="M 159.5,153.5 C 176.056,155.608 183.223,164.942 181,181.5C 175.683,194.409 166.183,199.242 152.5,196C 138.377,188.013 135.21,176.847 143,162.5C 147.534,157.487 153.034,154.487 159.5,153.5 Z M 159.5,162.5 C 148.009,166.484 145.175,173.817 151,184.5C 158.229,190.126 164.895,189.459 171,182.5C 174.631,171.42 170.798,164.753 159.5,162.5 Z"/></g>
<g><path style="opacity:0.902" fill="#fefffe" d="M 239.5,153.5 C 258.212,156.596 265.045,167.262 260,185.5C 251.866,197.061 241.366,199.894 228.5,194C 215.731,182.276 215.398,170.276 227.5,158C 231.432,155.972 235.432,154.472 239.5,153.5 Z M 239.5,162.5 C 235.718,163.319 232.551,165.319 230,168.5C 227.149,175.219 228.315,181.053 233.5,186C 243.883,190.142 250.55,186.809 253.5,176C 252.242,167.908 247.575,163.408 239.5,162.5 Z"/></g>
</svg>
